<svg width="80" height="75" viewBox="0 0 80 75" fill="none" xmlns="http://www.w3.org/2000/svg">
<g clip-path="url(#clip0_2481_102)">
<mask id="mask0_2481_102" style="mask-type:luminance" maskUnits="userSpaceOnUse" x="0" y="0" width="80" height="75">
<path d="M0 0H80V75H0V0Z" fill="white"/>
</mask>
<g mask="url(#mask0_2481_102)">
<path d="M20.468 58.851C20.265 58.75 20.468 58.242 20.468 58.039C20.367 58.039 20.367 57.938 20.367 57.836C20.3014 57.1581 20.3354 56.4741 20.468 55.806C20.468 55.705 20.265 55.705 20.367 55.603H20.468C20.4667 55.5245 20.4478 55.4472 20.4126 55.377C20.3775 55.3067 20.3271 55.2452 20.265 55.197H20.468C20.6721 54.6051 20.6721 53.9619 20.468 53.37C20.57 53.167 20.876 52.761 20.468 52.558C20.672 52.456 20.672 52.254 20.57 52.05C20.672 52.05 20.672 51.847 20.774 51.949C20.57 51.239 20.774 51.036 20.774 50.325C20.774 50.223 20.876 50.223 20.978 50.223C20.876 50.02 20.774 49.716 20.978 49.513C20.978 48.904 20.774 48.397 21.181 47.889C21.079 47.279 21.385 46.671 21.181 46.163H21.283C21.079 45.25 21.894 44.235 21.283 43.321C21.385 43.321 21.385 43.22 21.487 43.22C21.589 43.22 21.385 43.118 21.385 43.017C21.578 42.568 21.615 42.067 21.487 41.596C21.655 40.83 21.723 40.045 21.69 39.261C21.792 39.16 21.69 39.058 21.894 39.058C21.894 38.957 21.792 38.957 21.792 38.855C21.996 38.855 21.894 38.652 22.098 38.652C21.894 38.145 22.505 37.637 22.2 37.13C22.403 37.028 22.098 36.724 22.403 36.52C22.301 36.52 22.403 36.318 22.301 36.318C22.4316 36.1082 22.5171 35.8736 22.5522 35.629C22.5874 35.3843 22.5713 35.1351 22.505 34.897C22.912 34.491 22.811 33.882 23.015 33.476C22.811 32.968 23.218 32.461 22.912 32.156C23.014 31.75 23.32 31.446 23.116 31.04C23.372 30.539 23.479 29.975 23.422 29.416C23.5597 29.1902 23.6489 28.9381 23.6839 28.6759C23.7188 28.4137 23.6988 28.1471 23.625 27.893C23.757 27.7428 23.8457 27.5595 23.8816 27.3628C23.9175 27.166 23.8994 26.9632 23.829 26.776C24.134 26.371 24.033 25.762 24.339 25.254C24.339 25.152 24.236 25.152 24.236 25.051C24.644 24.239 24.644 23.325 25.051 22.513C25.051 22.412 25.051 22.412 24.949 22.31C25.051 22.31 25.051 22.209 25.153 22.209C24.949 21.397 25.662 20.585 25.56 19.671C25.662 19.57 25.662 19.468 25.764 19.468C25.866 19.468 25.764 19.265 25.866 19.265C25.764 19.062 25.866 19.062 25.866 18.859C25.9724 18.7562 26.0478 18.6256 26.0837 18.4821C26.1196 18.3385 26.1145 18.1878 26.069 18.047C26.273 17.743 26.273 17.235 26.579 16.931C26.68 16.829 26.579 16.931 26.579 16.728C26.62 16.7022 26.6553 16.6682 26.6827 16.6283C26.7102 16.5884 26.7292 16.5433 26.7386 16.4957C26.7481 16.4482 26.7478 16.3992 26.7377 16.3518C26.7276 16.3045 26.708 16.2596 26.68 16.22C26.884 15.713 27.19 15.408 27.088 14.8C27.189 14.8 27.189 14.698 27.291 14.698C27.401 13.974 27.571 13.261 27.801 12.566C28.411 11.856 28.31 10.739 28.411 9.72403C28.208 9.31803 28.208 9.01403 28.004 8.60803C27.7921 8.3158 27.5534 8.04396 27.291 7.79603C27.088 7.89703 27.088 7.59303 26.782 7.69403L26.477 7.39003C25.255 7.08503 24.44 6.17203 23.014 6.67903C22.449 6.98003 21.904 7.31903 21.384 7.69403C21.164 7.98203 20.886 8.22403 20.57 8.40403V8.50603C19.3483 9.68126 18.2868 11.0124 17.413 12.465C17.312 12.465 17.312 12.566 17.21 12.566C16.7 13.48 16.191 14.495 15.58 15.408C15.58 15.51 15.479 15.51 15.58 15.611C15.173 15.916 15.377 16.728 14.868 16.931C14.562 17.54 14.053 18.047 13.748 18.656C12.729 19.671 12.424 20.991 11.508 22.107C11.609 22.209 11.508 22.209 11.508 22.31C11.3821 22.4256 11.2784 22.5632 11.202 22.716C11.202 22.919 10.998 23.021 10.998 23.224C10.0851 24.6215 9.26856 26.0795 8.554 27.588C8.656 27.69 8.554 27.69 8.554 27.791C8.14652 28.4169 7.83727 29.1015 7.637 29.821C7.332 30.228 7.23 30.634 6.925 31.04V31.243C6.586 31.697 6.344 32.215 6.212 32.765C6.008 32.765 6.11 33.171 5.906 33.07C5.906 32.765 6.212 32.46 6.11 32.258C6.11 32.359 6.008 32.055 5.906 32.156C6.11 31.852 5.906 31.344 6.212 31.04C6.11 31.04 6.11 31.04 6.008 30.938C6.044 30.079 6.181 29.228 6.415 28.401H6.619C6.619 28.299 6.517 28.198 6.415 28.096C6.517 27.791 6.721 27.69 6.517 27.284C6.62619 27.1416 6.70134 26.9761 6.7367 26.8002C6.77206 26.6243 6.76669 26.4426 6.721 26.269C6.721 26.168 7.026 26.168 6.925 26.066C6.84681 26.0589 6.77409 26.0229 6.721 25.965C6.925 25.66 6.925 25.457 6.721 24.949C7.026 24.746 6.823 24.239 7.128 24.036C7.026 24.036 6.925 23.934 7.026 23.833C7.08137 23.8397 7.13752 23.8339 7.19043 23.8163C7.24333 23.7987 7.29168 23.7696 7.332 23.731C7.23 23.325 7.128 22.919 7.434 22.615C7.332 22.31 7.434 22.107 7.739 22.107C7.637 21.701 7.434 21.295 7.841 21.194C7.943 20.28 7.026 19.976 6.517 19.671C6.415 19.874 5.907 19.671 5.703 19.468C5.295 19.57 4.888 19.367 4.684 19.671C4.074 19.671 3.666 19.976 3.157 19.671C2.138 19.773 1.324 19.062 0.611 19.671C0.343805 20.205 0.271643 20.8155 0.407 21.397C0.713 21.498 0.713 21.701 0.611 22.006C0.663432 22.0105 0.712612 22.0333 0.749914 22.0704C0.787215 22.1076 0.810258 22.1566 0.815 22.209C0.634809 23.5544 0.566575 24.9124 0.611 26.269H0.509C0.549379 27.3223 0.481018 28.3768 0.305 29.416C0.509 29.72 0.204 30.634 0.305 31.243C0.204 31.243 0.102 31.243 0.102 31.344C0.102 31.446 0.204 31.446 0.305 31.446C0.102 32.156 0.407 32.766 0 33.374H0.102C-0.102 33.882 0.204 34.592 0 35.303C0.815 35.912 0.51 36.216 0.713 36.723C0.611 36.825 0.407 36.825 0.407 36.927C0.407 37.028 0.611 36.927 0.611 37.028C0.611 37.13 0.407 37.028 0.407 37.13C0.407 37.231 0.509 37.231 0.611 37.231C0.305 39.058 0.611 41.494 0.305 43.321C0.305 43.423 0.407 43.524 0.407 43.626C0.305 44.032 0.611 45.046 0.204 45.453C0.204 45.554 0.407 45.554 0.305 45.656C0.204 45.757 0.305 45.859 0.102 45.859C0.102 46.062 0.407 45.757 0.407 45.96C0.407 46.163 0.102 46.468 0.407 46.772C0.407 46.874 0.305 46.975 0.305 47.178C0.459294 47.9144 0.459294 48.6747 0.305 49.411C0.407 51.949 0.305 54.588 0.407 56.72C0.305328 57.1197 0.305328 57.5384 0.407 57.938C0 58.547 0.51 59.562 0.204 60.17C0.407 60.271 0.204 60.576 0.204 60.677C0.204 60.779 0.305 60.88 0.305 61.083C0.202899 61.4137 0.202899 61.7674 0.305 62.098C0.152 62.56 0.152 63.058 0.305 63.519C0.245 64.156 0.388 64.795 0.713 65.346C1.731 65.956 2.851 65.854 3.666 66.158C3.87 66.057 4.277 66.26 4.684 66.158C5.295 66.057 5.397 65.549 5.601 65.042C5.51993 64.9231 5.48378 64.7792 5.499 64.636C5.193 64.026 5.397 63.215 5.092 62.504C5.092 60.576 4.481 58.038 5.092 56.008C4.99 55.501 5.295 55.196 5.193 54.588C5.397 54.283 5.092 53.978 5.193 53.674C5.092 53.369 5.193 53.369 5.092 53.166C5.193 53.065 5.092 52.76 5.295 52.658C5.193 52.455 5.092 52.253 5.295 52.151C5.23068 51.9685 5.2065 51.7742 5.22411 51.5814C5.24171 51.3886 5.30068 51.2019 5.397 51.034C5.49882 50.4978 5.49882 49.9472 5.397 49.411C5.397 49.309 5.601 49.411 5.499 49.208V48.903C5.804 47.786 5.397 46.163 5.703 45.249C5.804 45.249 5.906 45.249 5.906 45.147C5.906 45.046 5.804 45.147 5.703 45.046C5.906 44.843 5.703 44.436 6.008 44.234C5.804 43.828 6.314 43.524 6.212 43.016C6.314 42.813 6.314 42.61 6.619 42.508C6.517 42.305 6.721 42.204 6.619 42.001C6.721 41.899 6.721 41.798 6.823 41.798H6.619C7.129 40.986 7.129 39.869 7.637 39.058C7.943 37.636 8.656 36.418 9.063 35.098C9.165 34.998 9.165 34.794 9.369 34.794C9.42649 34.1106 9.71336 33.4668 10.183 32.967L10.082 32.663C10.183 32.663 10.183 32.561 10.285 32.561C10.461 31.799 10.7 31.051 10.998 30.328H11.202C11.202 29.82 11.609 29.516 11.609 29.008C12.016 28.501 12.119 27.79 12.627 27.283C12.782 26.5166 13.0942 25.7907 13.544 25.151C13.646 25.151 13.646 24.948 13.748 25.05C13.9826 24.1418 14.4369 23.3052 15.071 22.614C15.3555 21.8706 15.7692 21.1834 16.293 20.584C16.497 19.67 17.312 18.96 17.515 18.046C17.617 18.046 17.617 17.945 17.719 17.945C17.941 17.0128 18.4809 16.1871 19.246 15.61C19.348 15.509 19.348 15.306 19.45 15.204C19.96 14.9 20.367 14.189 21.08 13.884C21.283 13.377 21.792 13.174 22.2 12.768C22.2617 12.6061 22.3571 12.4591 22.4799 12.3367C22.6026 12.2143 22.7499 12.1193 22.912 12.058C22.607 13.276 22.2 14.392 21.996 15.61C21.894 15.61 21.792 15.61 21.792 15.712C21.792 15.813 21.69 16.219 21.589 16.524C21.69 16.93 21.487 17.133 21.385 17.437C21.385 18.249 20.978 19.163 20.875 20.177H20.774C20.876 20.584 20.57 20.787 20.774 20.99C20.367 21.599 20.468 22.512 20.163 23.223C20.163 23.324 20.163 23.324 20.265 23.527C20.0091 23.954 19.9015 24.4536 19.959 24.948C19.654 25.862 19.552 26.978 19.246 27.993C19.2731 27.993 19.299 28.0038 19.3181 28.0229C19.3373 28.042 19.348 28.068 19.348 28.095C19.246 28.095 19.246 28.298 19.348 28.298C18.941 28.806 19.145 29.313 19.145 29.922C19.0289 30.0414 18.9559 30.1961 18.9375 30.3616C18.919 30.527 18.9561 30.694 19.043 30.836C18.941 31.14 18.635 31.445 18.839 31.851C18.635 31.952 18.635 32.358 18.737 32.358H18.635C18.4728 33.3661 18.371 34.3829 18.33 35.403C18.228 35.505 18.228 35.606 18.126 35.708C18.33 36.114 17.821 36.418 18.024 36.723L17.923 36.926C18.024 37.839 17.617 38.956 17.719 39.869C17.515 40.072 17.617 40.377 17.617 40.783H17.515C17.515 42.203 17.21 44.133 17.108 45.959L16.904 46.162C17.009 46.458 17.009 46.78 16.904 47.076C16.904 47.177 17.006 47.177 17.006 47.38C16.802 49.613 16.701 51.846 16.599 53.877C16.497 53.978 16.497 54.181 16.395 54.283C16.407 54.897 16.475 55.508 16.599 56.11H16.497C16.497 57.125 16.599 58.343 16.497 59.46C16.802 59.865 16.497 60.779 16.802 61.388C16.701 61.489 16.802 61.591 16.701 61.591C16.7917 61.7423 16.8478 61.9117 16.8652 62.0872C16.8827 62.2627 16.8611 62.4399 16.802 62.606C16.954 63.308 17.056 64.021 17.108 64.737L17.006 64.839C17.189 65.292 17.292 65.772 17.312 66.259C17.495 66.789 17.632 67.332 17.719 67.884C17.719 67.985 17.617 68.087 17.617 68.188C17.617 68.29 17.719 68.391 17.821 68.594C18.047 69.354 18.319 70.1 18.635 70.827C18.635 70.827 18.534 71.03 18.635 71.03C18.737 71.03 18.635 70.929 18.737 70.929C18.839 71.335 19.043 71.538 19.043 71.944C19.246 72.046 19.246 72.147 19.45 72.249C19.45 72.35 19.348 72.35 19.45 72.452H19.654C19.45 72.452 19.654 72.553 19.654 72.655C19.731 72.665 19.802 72.701 19.857 72.756C20.8693 73.7567 22.1377 74.459 23.523 74.786C24.005 74.804 24.483 74.872 24.949 74.989V74.786C24.949 74.989 25.153 74.786 25.051 74.989C25.7832 75.0035 26.5095 74.8564 27.1784 74.5583C27.8473 74.2601 28.4423 73.8182 28.921 73.264H29.124C29.8183 72.5279 30.4646 71.748 31.059 70.929C31.367 70.512 31.639 70.071 31.874 69.609C32.4058 69.0932 32.8223 68.4705 33.096 67.782C33.605 67.478 33.605 66.564 34.216 66.26C34.318 65.752 34.726 65.55 34.726 64.94C35.031 64.839 34.826 64.331 35.234 64.128C35.234 64.027 35.234 63.925 35.132 63.925C35.438 63.824 35.336 63.519 35.642 63.418C35.642 63.215 35.642 63.215 35.54 63.113C35.743 63.215 35.642 63.113 35.845 63.012C36.049 62.91 35.743 62.91 35.743 62.707C35.947 62.606 35.743 62.403 36.049 62.403C35.845 62.098 36.151 61.895 36.151 61.693H36.252C36.354 61.591 36.151 61.388 36.252 61.388H36.456C36.354 60.678 37.067 60.576 36.863 59.967C37.067 59.764 37.373 59.561 37.169 59.257C37.475 59.155 37.475 58.749 37.679 58.546C37.576 58.444 37.474 58.647 37.474 58.546L38.086 57.936C38.086 57.531 38.086 57.531 38.289 57.328C38.187 57.226 37.984 57.328 37.984 57.023C38.0392 57.0167 38.0951 57.0225 38.1478 57.0402C38.2005 57.0578 38.2487 57.0868 38.289 57.125C38.2936 57.0726 38.3165 57.0234 38.3539 56.9862C38.3912 56.9491 38.4405 56.9263 38.493 56.922C38.493 56.82 38.391 56.922 38.391 56.719C38.446 56.774 38.518 56.809 38.595 56.82C38.595 56.719 38.493 56.719 38.493 56.617C38.696 56.617 38.696 56.516 38.798 56.414C38.9 56.313 38.696 56.313 38.696 56.211C39.002 56.211 38.595 55.907 38.9 55.907V56.008C39.002 55.805 39.307 55.704 39.002 55.602C39.206 55.501 39.307 55.399 39.307 55.298C39.104 55.298 39.307 55.298 39.307 55.196C39.307 55.095 39.104 55.298 39.104 55.196C39.104 55.095 39.307 55.095 39.307 55.196C39.409 54.993 39.511 54.993 39.715 54.993V54.892C39.715 54.689 39.511 54.993 39.715 54.892C39.918 54.587 39.817 54.282 39.918 53.978C39.817 53.978 39.715 53.877 39.817 53.775C39.919 53.674 39.919 53.978 40.02 53.877C40.122 53.775 40.02 53.572 40.02 53.471H40.122C40.02 53.268 40.224 53.268 40.224 53.166C40.2042 53.1454 40.1785 53.1313 40.1505 53.1256C40.1224 53.1198 40.0933 53.1228 40.067 53.134C40.0493 53.1414 40.0333 53.1523 40.02 53.166C40.122 52.963 40.326 53.065 40.428 52.862C40.122 52.354 40.631 51.846 40.835 51.44C40.937 51.339 40.733 51.136 41.039 51.136C40.937 50.933 41.039 50.832 40.937 50.73C41.039 50.73 41.039 50.628 41.242 50.628C41.446 50.628 41.039 50.425 41.242 50.425C41.4441 50.2278 41.6028 49.9905 41.708 49.7284C41.8132 49.4664 41.8626 49.1853 41.853 48.903C41.955 48.903 41.853 49.106 42.057 49.004C42.077 48.756 42.147 48.515 42.261 48.294C42.057 48.396 42.159 48.192 42.261 48.192V48.294C42.3113 48.2189 42.3381 48.1305 42.3381 48.04C42.3381 47.9496 42.3113 47.8612 42.261 47.786C42.464 47.786 42.566 47.482 42.464 47.279C42.77 47.177 42.668 46.771 42.872 46.669C42.872 46.061 43.279 45.655 43.279 45.046C43.381 45.046 43.381 44.944 43.483 44.944C43.483 44.437 43.992 44.132 43.89 43.524C44.094 43.524 43.89 43.32 44.094 43.32C43.992 42.914 44.501 42.508 44.399 41.9C44.705 41.595 44.603 40.986 44.909 40.478C44.297 39.768 44.501 39.666 44.501 39.463L41.751 44.64H41.65C41.752 45.046 41.242 45.147 41.446 45.553C40.631 46.873 40.02 48.396 39.104 49.613C39.104 49.715 39.206 49.715 39.206 49.817H39.104C38.7165 50.4175 38.4083 51.0655 38.187 51.745H38.086C38.187 51.948 37.984 51.846 37.984 51.948C38.0111 51.948 38.037 51.9588 38.0561 51.9779C38.0753 51.997 38.086 52.023 38.086 52.05C37.8739 52.2007 37.6993 52.3981 37.5757 52.627C37.4521 52.8558 37.3827 53.1101 37.373 53.37C37.1123 53.5714 36.9315 53.8588 36.863 54.181C36.558 54.08 36.762 54.587 36.558 54.791C36.354 54.993 36.456 54.689 36.354 54.791C36.1966 55.0146 36.0604 55.2523 35.947 55.501C35.947 55.602 36.151 55.602 36.049 55.704H35.845C35.438 56.82 34.521 57.632 34.115 58.749H34.012C32.5682 61.0944 31.0048 63.3641 29.328 65.549C28.921 65.955 28.513 66.564 28.004 66.767C28.0024 66.9235 27.9526 67.0756 27.8613 67.2027C27.77 67.3298 27.6418 67.4256 27.494 67.477C26.6893 68.6859 25.6509 69.7215 24.44 70.523C24.16 70.863 23.758 71.081 23.32 71.132C23.116 70.929 23.014 70.624 22.81 70.422C22.1769 69.1473 21.7641 67.7745 21.589 66.362C21.589 66.26 21.385 66.26 21.487 66.158C21.5254 66.118 21.5545 66.07 21.5721 66.0175C21.5898 65.9649 21.5955 65.9091 21.589 65.854C21.5619 65.854 21.536 65.8433 21.5169 65.8242C21.4977 65.805 21.487 65.7791 21.487 65.752C21.589 65.549 21.385 65.245 21.283 65.143C21.487 64.94 21.181 64.839 21.283 64.534C21.1019 64.154 21.0657 63.7209 21.181 63.316C20.774 62.606 21.283 61.692 20.876 60.88C21.079 60.373 20.774 59.865 20.774 59.358C20.672 59.256 20.57 59.561 20.468 59.256C20.57 59.256 20.672 59.155 20.774 59.256C20.163 59.053 20.57 59.053 20.468 58.85V58.851ZM28.004 8.50603C28.106 8.70903 28.004 8.30303 28.004 8.50603ZM6.212 33.07C6.314 33.273 6.314 33.07 6.212 33.07ZM23.422 28.908C23.523 29.009 23.422 29.009 23.422 28.908ZM22.811 32.461C22.912 32.664 22.811 32.258 22.811 32.461ZM22.403 34.694L22.505 34.592C22.403 34.592 22.403 34.592 22.403 34.694ZM21.996 37.434V37.333C22.098 37.231 22.098 37.536 21.996 37.434ZM19.145 39.16C19.145 39.261 19.043 39.261 19.145 39.16ZM21.283 39.16C21.385 39.058 21.283 39.261 21.283 39.16ZM19.653 42.306C19.756 42.509 19.653 42.103 19.653 42.306ZM18.33 42.814C18.228 42.611 18.126 42.915 18.33 42.814ZM20.468 43.829C20.57 44.032 20.468 43.626 20.468 43.829ZM18.84 44.641C19.043 44.742 18.94 44.336 18.84 44.641ZM18.024 45.351V44.945H18.228C18.33 45.25 18.228 45.25 18.228 45.351C18.228 45.25 18.126 45.25 18.024 45.351ZM20.468 44.539C20.57 44.641 20.57 44.336 20.468 44.539ZM17.821 45.96C17.821 45.757 18.024 45.351 18.228 45.656C18.228 45.859 18.126 45.96 17.923 46.062L17.821 45.96ZM18.534 46.366C18.432 46.265 18.534 46.163 18.635 46.062C18.635 46.163 18.737 46.265 18.534 46.366ZM17.821 46.976C17.894 46.816 17.929 46.643 17.923 46.468C18.126 46.569 18.126 46.772 18.228 46.468C18.432 46.975 18.126 47.483 18.228 48.092C18.024 48.193 18.33 48.498 17.923 48.498C17.905 48.0852 17.8365 47.6762 17.719 47.28C18.126 47.28 17.515 47.077 17.923 47.077C18.024 46.874 17.923 46.874 17.821 46.975V46.976ZM18.839 47.483C18.839 47.584 18.635 47.686 18.635 47.483H18.839ZM21.079 47.178C21.079 47.28 20.978 47.28 21.079 47.178ZM20.469 48.092C20.57 48.295 20.469 47.889 20.469 48.092ZM17.923 49.412H18.024C18.0384 49.5466 18.0179 49.6826 17.9645 49.807C17.9111 49.9313 17.8265 50.0398 17.719 50.122C17.923 50.224 17.719 50.426 17.617 50.528C17.515 50.63 17.413 50.426 17.312 50.426C17.515 50.223 17.617 49.716 17.922 49.614H17.719C17.617 49.31 17.821 49.411 17.719 49.209C17.923 49.107 18.024 48.904 17.923 48.802C18.024 48.802 18.024 49.005 18.126 48.904C18.024 49.107 18.024 49.311 17.923 49.412ZM19.857 48.599C19.857 48.701 19.756 48.701 19.857 48.599ZM17.312 51.543C17.312 51.34 17.413 51.34 17.312 51.137L17.515 51.035C17.617 51.34 17.515 51.442 17.312 51.543ZM20.265 51.847C20.265 51.949 20.163 51.949 20.061 51.949C20.163 51.949 20.163 51.847 20.265 51.847ZM19.348 52.558C19.348 52.66 19.246 52.66 19.348 52.558C19.246 52.66 19.246 52.558 19.348 52.558ZM20.265 52.66C20.367 52.863 20.265 52.457 20.265 52.66ZM18.126 53.573C18.33 53.776 18.126 53.472 18.126 53.573ZM20.57 52.964C20.672 52.863 20.57 53.167 20.57 52.964ZM18.94 54.081C19.145 54.081 18.737 54.385 18.94 54.081ZM20.468 53.776C20.57 53.979 20.468 53.573 20.468 53.776ZM20.57 54.08C20.57 54.182 20.468 54.182 20.57 54.08ZM18.228 54.893C18.33 55.096 18.228 54.69 18.228 54.893ZM20.061 54.588C20.163 54.69 20.061 54.385 20.061 54.588ZM18.126 55.198C18.126 55.298 18.024 55.298 18.126 55.198C18.024 55.298 18.024 55.198 18.126 55.198ZM38.798 50.426C38.9 50.629 38.798 50.325 38.798 50.426ZM19.348 55.705C19.45 55.603 19.348 55.908 19.348 55.705ZM17.618 56.517C17.718 56.618 17.618 56.314 17.618 56.517ZM19.552 56.314C19.654 56.415 19.552 56.111 19.552 56.314ZM40.122 51.137C40.224 51.34 40.122 50.934 40.122 51.137ZM20.265 56.618C20.163 56.618 20.265 56.517 20.265 56.415C20.265 56.314 20.163 56.517 20.265 56.618ZM39.817 51.543C39.919 51.645 39.817 51.645 39.817 51.543ZM17.413 57.836C17.515 58.039 17.413 57.735 17.413 57.836ZM39.409 52.254C39.511 52.457 39.409 52.152 39.409 52.254ZM37.373 53.066C37.475 53.167 37.373 52.862 37.373 53.066ZM20.163 57.532L20.061 57.43C20.163 57.43 20.163 57.43 20.163 57.532ZM19.145 57.735C19.246 57.938 19.145 57.532 19.145 57.735ZM39.613 52.863C39.613 52.964 39.511 52.964 39.613 52.863ZM18.941 58.343C19.043 58.547 18.941 58.141 18.941 58.343ZM18.024 58.851C17.923 58.851 17.923 58.851 17.821 58.75C17.923 58.75 18.024 58.75 18.024 58.851ZM39.307 53.979C39.409 54.182 39.307 53.776 39.307 53.979ZM20.265 59.156C20.163 59.156 20.265 59.054 20.265 58.953C20.468 58.953 20.265 59.054 20.265 59.156ZM19.552 60.171C19.654 60.272 19.654 59.968 19.552 60.171ZM18.228 60.577C18.33 60.678 18.228 60.374 18.228 60.577ZM20.163 60.171C20.265 60.374 20.163 59.968 20.163 60.171ZM20.468 60.374C20.4132 60.3188 20.342 60.283 20.265 60.272C20.367 60.272 20.57 60.272 20.468 60.374ZM38.086 56.009C38.187 56.111 38.187 56.009 38.086 56.009ZM20.468 61.084C20.57 61.287 20.468 60.881 20.468 61.084ZM17.923 62.302C18.024 62.505 17.923 62.099 17.923 62.302ZM20.163 62.099C20.265 62.302 20.163 61.896 20.163 62.099ZM20.163 62.709C20.265 62.809 20.265 62.505 20.163 62.709ZM36.456 59.562C36.354 59.562 36.354 59.562 36.354 59.46C36.456 59.46 36.456 59.46 36.456 59.562ZM20.876 65.652C20.978 65.855 20.876 65.449 20.876 65.652ZM35.438 61.998C35.54 62.201 35.438 61.795 35.438 61.998ZM35.54 61.998C35.642 62.099 35.54 61.795 35.54 61.998ZM32.587 67.58L32.485 67.479C32.587 67.479 32.688 67.479 32.587 67.58ZM20.06 72.554C20.264 72.656 20.162 72.249 20.06 72.554ZM21.282 73.163C20.977 73.265 20.569 72.96 20.366 72.554C20.569 72.554 20.569 72.757 20.671 72.656C20.773 73.061 21.282 72.96 21.282 73.163ZM28.003 72.859C28.105 73.062 28.003 72.656 28.003 72.859ZM26.373 74.077L26.476 73.975C26.476 74.077 26.476 74.077 26.374 74.077H26.373ZM17.107 39.464C17.209 39.566 17.107 39.261 17.107 39.464ZM44.5 39.363C44.704 39.363 44.398 39.16 44.5 39.363ZM20.468 58.85C20.672 58.85 20.367 58.749 20.468 58.85ZM38.493 55.602C38.493 55.704 38.391 55.704 38.493 55.602ZM36.253 60.677V60.779H36.354V60.677H36.253ZM36.151 60.88C36.252 60.982 36.151 60.677 36.151 60.88ZM36.049 60.982C36.049 61.185 36.252 61.083 36.151 60.982H36.049ZM43.584 12.565C43.296 13.019 43.154 13.551 43.177 14.088C43.177 14.189 42.974 14.189 42.974 14.392C42.922 15.344 42.82 16.293 42.668 17.234C42.668 17.437 42.362 17.539 42.464 17.844C42.77 18.757 42.159 19.366 42.362 20.381C42.362 20.584 42.261 20.482 42.261 20.685C42.0915 22.0525 41.6425 23.3705 40.942 24.557C40.2406 25.7449 39.303 26.7762 38.187 27.587C35.642 29.008 34.827 25.253 35.132 23.426L35.031 23.02C35.234 22.817 35.031 22.31 35.336 22.106C35.363 21.393 35.431 20.681 35.54 19.975C35.845 19.67 35.743 19.265 35.743 18.858C35.8429 18.7727 35.9154 18.6599 35.9517 18.5337C35.988 18.4075 35.9863 18.2733 35.947 18.148C36.049 18.046 36.252 18.046 36.151 17.945C36.312 17.555 36.415 17.145 36.456 16.727C37.067 16.017 37.067 15.001 37.78 14.291C37.78 13.885 38.086 13.681 38.187 13.377C38.9 12.667 39.104 11.652 40.02 11.043C40.122 10.535 40.631 10.333 40.835 9.92603C41.2165 9.71294 41.5604 9.43862 41.853 9.11403C42.032 8.98703 42.245 8.91603 42.464 8.91103C42.668 8.91103 42.77 9.01303 42.974 8.91103C43.584 8.81003 43.89 8.50503 43.89 7.99803C43.686 7.18603 42.872 7.38803 42.566 6.67803C41.548 6.27203 40.835 5.35803 39.715 5.15603C38.9 5.15603 38.798 6.06903 37.984 6.47503C35.438 10.332 32.994 14.291 31.772 18.96C31.2498 20.7737 31.1451 22.6821 31.466 24.542C31.568 24.745 31.365 24.644 31.365 24.847C32.179 27.791 32.994 30.43 35.235 31.039C36.0709 30.8568 36.9322 30.8223 37.78 30.937C37.78 30.836 37.576 30.734 37.678 30.633C38.188 30.633 38.493 30.125 39.002 30.125C39.52 29.655 40.064 29.215 40.632 28.805C41.039 27.993 41.752 27.182 42.261 26.369C42.362 26.775 42.464 27.08 42.566 27.486C43.3692 28.4884 44.4777 29.2012 45.723 29.516C46.6132 29.2524 47.42 28.7628 48.065 28.095C50 24.34 50.917 20.077 52.24 16.017C52.299 15.261 52.435 14.513 52.648 13.784C52.698 12.905 52.698 12.024 52.648 11.145C52.3713 11.7903 52.1991 12.4756 52.138 13.175C51.324 15.51 50.611 17.845 49.898 20.179C49.185 22.513 48.574 24.949 46.639 26.675C46.538 26.573 46.232 26.675 46.13 26.675C46.028 26.472 45.927 26.167 45.825 25.965C45.703 23.993 45.84 22.014 46.232 20.077C46.334 18.149 46.639 16.727 46.742 14.697C47.454 13.784 46.334 13.277 45.723 12.972C45.28 12.6753 44.8008 12.4367 44.297 12.262C44.094 12.465 43.788 12.465 43.585 12.566L43.584 12.565ZM66.191 11.652C66.8331 9.86605 67.8 8.21426 69.043 6.78003C69.127 7.86603 69.059 8.96003 68.839 10.028C68.9231 10.6445 68.853 11.2723 68.635 11.855C68.737 12.058 68.737 12.058 68.635 12.159C68.839 12.362 68.737 13.073 68.635 13.276C68.698 13.886 68.664 14.503 68.534 15.103C68.635 15.509 68.33 15.915 68.635 16.321C68.4622 17.0863 68.3939 17.8714 68.432 18.655C68.4049 18.655 68.379 18.6658 68.3599 18.6849C68.3407 18.704 68.33 18.73 68.33 18.757C68.635 20.99 68.228 22.918 68.737 25.354C68.737 25.456 68.737 25.557 68.635 25.557C68.534 25.557 68.737 25.659 68.737 25.862C68.432 27.08 69.145 28.806 69.247 30.024C69.348 30.328 69.552 30.633 69.45 30.937C69.654 31.039 69.756 31.343 69.857 31.749C69.959 31.851 70.061 31.851 70.163 32.054C69.959 32.054 70.061 32.155 70.061 32.358C70.061 32.561 70.163 32.257 70.163 32.358C70.163 32.46 70.061 32.46 70.163 32.561C70.183 32.809 70.253 33.051 70.367 33.271C70.663 33.516 70.936 33.788 71.181 34.084C71.181 34.287 71.283 34.287 71.283 34.388C72.913 35.809 75.051 37.535 77.699 36.52C77.6719 36.52 77.646 36.5093 77.6269 36.4902C77.6077 36.471 77.597 36.4451 77.597 36.418C77.902 36.317 78.717 36.114 78.717 35.809C75.967 36.215 74.44 34.185 73.117 32.459C73.117 32.257 73.014 32.257 73.014 32.155C72.404 31.546 72.301 30.328 71.996 29.516C71.996 29.5027 71.9986 29.4895 72.0038 29.4771C72.0089 29.4648 72.0164 29.4536 72.0259 29.4443C72.0354 29.4349 72.0467 29.4274 72.059 29.4224C72.0714 29.4174 72.0847 29.4149 72.098 29.415C71.181 27.182 71.487 24.745 71.181 22.715C71.2825 22.4192 71.2825 22.0979 71.181 21.802C71.385 21.802 71.181 21.497 71.385 21.497C71.079 21.193 71.385 20.99 71.385 20.685C71.334 20.077 71.334 19.466 71.385 18.858C71.5008 18.7387 71.5737 18.5842 71.5921 18.419C71.6106 18.2537 71.5736 18.087 71.487 17.945C71.591 17.6147 71.591 17.2604 71.487 16.93C71.792 16.727 71.589 16.625 71.69 16.32H71.589C71.589 16.22 71.69 16.22 71.792 16.32C71.7112 16.2013 71.6751 16.0578 71.69 15.915C71.69 15.813 71.792 15.915 71.792 15.712C71.814 15.032 71.882 14.353 71.996 13.682C71.996 13.479 72.2 13.276 71.894 12.972C71.894 12.768 72.098 12.667 72.098 12.362C71.996 12.362 71.894 12.362 71.894 12.261C71.894 12.159 72.2 12.159 72.2 12.058C72.2 11.956 71.996 12.058 71.996 11.855C71.996 11.652 72.301 11.956 72.301 11.753C72.098 11.55 72.403 11.652 72.2 11.347C72.403 11.144 72.403 10.637 72.505 10.332H72.403C72.403 10.231 72.607 10.231 72.505 10.129C72.4526 10.1245 72.4034 10.1017 72.3661 10.0646C72.3288 10.0275 72.3057 9.97844 72.301 9.92603C72.403 9.92603 72.403 10.028 72.607 9.92603C72.403 9.31703 73.014 9.01303 72.709 8.70803C72.811 8.70803 72.811 8.50503 73.014 8.40403C72.912 7.59203 73.422 6.57703 73.32 5.76403C73.3818 5.71582 73.432 5.65446 73.4671 5.58441C73.5023 5.51436 73.5213 5.43737 73.523 5.35903V5.05403C74.134 3.73403 74.338 2.31403 74.847 0.994031C74.338 0.689031 73.625 0.486031 73.217 0.182031C72.2 0.182031 71.385 -0.223969 70.367 0.182031C70.3562 0.259044 70.3203 0.330364 70.265 0.385031C70.367 0.791031 70.163 0.892031 70.265 1.29803C70.137 1.51403 70.067 1.75803 70.061 2.00803C67.9584 4.60969 66.3375 7.56616 65.275 10.738C65.071 10.738 65.173 10.941 65.071 10.941C65.071 11.144 65.173 11.043 65.173 11.246C64.563 12.768 64.053 14.494 63.543 15.915C63.6449 15.4125 63.6449 14.8946 63.543 14.392C63.748 12.667 64.155 11.347 64.257 9.52003C64.359 9.52003 64.257 9.41903 64.46 9.41903C64.46 7.89603 65.275 6.77903 65.275 5.35903C65.493 4.59203 65.663 3.81203 65.785 3.02403C65.682 2.82103 65.58 2.92203 65.58 2.61803C65.173 2.61803 64.97 2.11003 64.562 2.00803C63.442 2.11003 62.526 1.70403 61.507 2.00803C61.405 2.11003 61.405 2.21203 61.304 2.31303C61.405 5.05403 60.184 7.38903 59.572 9.82503C59.572 9.92603 59.674 10.129 59.674 10.231C59.674 10.332 59.471 10.129 59.572 10.332C59.267 11.042 59.165 11.855 58.859 12.565C58.859 13.377 58.35 13.986 58.35 14.9C57.332 17.843 56.721 20.888 55.703 23.832C55.601 24.136 55.703 24.441 55.397 24.644C55.194 23.629 55.397 23.02 55.194 22.004C55.397 21.396 54.888 20.888 55.295 20.381C55.193 20.381 55.193 20.279 55.193 20.178C55.295 19.163 55.193 18.046 55.193 17.031C55.499 16.321 55.092 15.611 55.397 15.001C55.2949 14.2602 55.2949 13.5089 55.397 12.768C55.3638 12.6491 55.3557 12.5245 55.3733 12.4023C55.3909 12.2801 55.4337 12.1628 55.499 12.058C55.397 10.332 55.804 8.70803 55.804 6.98303C55.906 6.88103 55.906 6.67803 56.008 6.57703C55.955 6.22503 56.028 5.86603 56.212 5.56203C56.1611 5.25949 56.1611 4.95057 56.212 4.64803C55.906 3.63303 54.684 4.03903 53.768 3.93803C53.055 4.34303 52.648 4.03903 52.24 4.24203C51.731 3.83603 50.306 4.64803 51.12 5.35803C51.12 5.46003 51.018 5.56203 51.12 5.66303C51.3049 6.42741 51.3396 7.22044 51.222 7.99803C51.12 10.028 51.222 12.768 51.12 14.494C51.205 15.404 51.239 16.32 51.222 17.234C51.222 17.336 51.12 17.437 51.12 17.64C51.13 18.02 51.198 18.398 51.324 18.757C51.3164 21.2061 51.5205 23.6512 51.934 26.065C51.996 26.647 52.098 27.223 52.24 27.791C52.3588 28.1825 52.5554 28.546 52.8179 28.8597C53.0805 29.1735 53.4036 29.4311 53.768 29.617C54.676 29.836 55.628 29.801 56.518 29.516C57.434 27.689 57.332 25.456 58.045 23.629C58.0518 23.5738 58.0461 23.5178 58.0285 23.465C58.0108 23.4122 57.9816 23.3641 57.943 23.324C58.429 21.5616 58.7695 19.7622 58.961 17.944C59.063 17.844 59.063 17.64 59.165 17.539C59.1981 16.7258 59.4065 15.9293 59.776 15.204C59.98 17.64 60.183 19.264 60.489 21.599C60.489 21.802 60.591 21.802 60.591 21.903C60.387 22.918 60.896 23.73 61.1 24.948C61.1271 24.948 61.153 24.9588 61.1721 24.9779C61.1913 24.997 61.202 25.023 61.202 25.05C61.202 25.659 61.914 26.167 62.016 26.674C63.849 26.471 64.155 25.456 64.053 24.441C64.053 24.136 63.951 23.831 63.951 23.527C63.951 23.223 64.053 23.121 64.155 23.02C64.05 22.518 63.9818 22.009 63.951 21.497C63.849 21.497 63.849 21.396 63.849 21.294C64.359 18.96 65.071 16.422 65.682 14.189C65.723 13.323 65.894 12.467 66.191 11.652C66.089 11.652 66.192 11.753 66.09 11.753C65.988 11.753 66.09 11.55 66.191 11.652ZM74.134 1.29803C74.236 1.50103 74.134 1.09503 74.134 1.29803ZM74.134 1.70403C74.236 1.80603 74.134 1.50103 74.134 1.70403ZM72.098 9.52003L71.996 9.41903C72.098 9.41903 72.2 9.41903 72.098 9.52003C72.2 9.72303 71.996 9.52003 72.098 9.52003ZM71.894 9.52003C72.098 9.72303 71.996 9.41903 71.894 9.52003ZM71.589 9.82503C71.69 9.72303 71.487 10.028 71.589 9.82503ZM71.69 11.753C71.589 11.652 71.792 11.55 71.69 11.55C71.69 11.347 71.894 11.753 71.69 11.753ZM71.792 12.971C71.894 13.174 71.792 12.768 71.792 12.971ZM70.978 21.091C71.181 21.193 70.978 20.888 70.978 21.091ZM57.027 26.573C57.128 26.674 57.027 26.369 57.027 26.573ZM75.866 14.291C74.644 15.103 73.931 16.422 72.811 17.234C72.811 17.336 72.912 17.437 72.811 17.437L72.709 17.336V17.539C72.607 17.539 72.607 17.539 72.505 17.64C72.388 17.966 72.175 18.249 71.895 18.452C71.895 18.452 71.895 18.655 71.792 18.655C71.283 19.061 70.978 19.67 70.468 20.076C70.468 20.279 70.265 20.279 70.265 20.482C68.228 22.309 66.802 24.441 64.868 26.268C64.664 26.37 64.664 26.471 64.46 26.573C64.46 26.573 64.46 26.775 64.359 26.775C64.053 26.877 63.951 27.182 63.748 27.385V27.588C63.442 27.791 63.137 27.892 63.238 28.4C63.136 28.501 63.035 28.501 62.933 28.603C63.035 28.907 62.526 28.907 62.729 29.211C62.322 29.516 61.813 29.922 61.914 30.43C61.896 30.4068 61.8728 30.388 61.8464 30.375C61.82 30.3621 61.7909 30.3553 61.7615 30.3553C61.7321 30.3553 61.703 30.3621 61.6766 30.375C61.6502 30.388 61.627 30.4068 61.609 30.43C61.609 30.633 61.711 30.531 61.711 30.633C61.5581 30.6584 61.4163 30.7291 61.304 30.836C61.304 30.937 61.202 30.937 61.304 31.039C60.794 31.242 60.794 31.749 60.387 32.054C60.081 32.764 59.471 33.272 59.165 33.982C59.1921 33.982 59.218 33.9928 59.2371 34.0119C59.2563 34.031 59.267 34.057 59.267 34.084C59.063 34.388 58.859 34.388 58.859 34.794C58.554 34.896 58.656 35.302 58.35 35.404C58.452 35.911 57.74 35.809 57.841 36.418C57.7181 36.4646 57.6128 36.5485 57.5398 36.6578C57.4668 36.7672 57.4298 36.8966 57.434 37.028C57.434 37.128 57.536 36.926 57.536 37.128C57.536 37.332 57.434 37.332 57.332 37.433C57.23 37.23 57.434 37.23 57.332 37.129C56.8619 37.6161 56.5132 38.2071 56.314 38.854C56.1615 38.9281 56.0329 39.0435 55.9428 39.187C55.8526 39.3306 55.8045 39.4965 55.804 39.666C55.601 39.768 55.499 39.971 55.397 40.072C55.703 40.275 55.295 40.884 54.888 40.986C54.786 41.189 54.786 41.493 54.583 41.493C54.583 41.595 54.786 41.493 54.684 41.696C54.583 41.899 54.379 41.899 54.175 42.001C53.666 43.117 52.953 44.234 52.444 45.351C52.24 45.451 52.342 45.655 52.342 45.756C51.935 45.756 52.037 46.061 51.935 46.162C51.833 46.264 52.037 46.264 52.037 46.467C52.037 46.67 51.833 46.467 51.731 46.467V46.771C50.916 47.685 50.611 49.004 49.898 50.121C49.898 50.223 50 50.121 50 50.324H49.796C49.898 50.628 49.491 50.628 49.593 50.933C48.88 51.542 48.778 52.557 48.269 53.268C48.269 53.369 48.371 53.369 48.371 53.471C48.167 53.471 48.269 53.775 47.963 53.877V54.181C47.6331 54.4227 47.3265 54.6945 47.047 54.993C47.149 55.399 46.843 55.603 46.741 56.008H46.639C46.741 56.211 46.538 56.414 46.436 56.516C46.416 56.796 46.348 57.071 46.232 57.328C46.13 56.718 46.334 55.704 46.029 55.501C46.232 53.369 45.723 51.745 45.621 49.512C45.6209 49.4986 45.6234 49.4853 45.6285 49.4728C45.6336 49.4604 45.6411 49.4491 45.6506 49.4396C45.6601 49.4301 45.6714 49.4226 45.6838 49.4175C45.6962 49.4124 45.7096 49.4099 45.723 49.41C45.417 48.192 45.519 46.365 45.112 45.046C45.0602 44.2619 44.958 43.482 44.806 42.711C44.8284 42.3694 44.7942 42.0265 44.705 41.696C44.7095 41.6437 44.7324 41.5947 44.7695 41.5575C44.8066 41.5204 44.8557 41.4975 44.908 41.493H44.705C44.705 41.392 44.603 41.29 44.501 41.189C44.5178 40.6457 44.4837 40.102 44.399 39.565C43.89 37.535 44.094 34.287 41.344 34.49C41.0809 34.4063 40.8046 34.3717 40.529 34.388C39.7563 34.5256 38.9687 34.5599 38.187 34.49C37.475 34.693 37.271 35.2 37.271 35.91C37.466 36.147 37.606 36.425 37.678 36.723C37.78 36.723 37.78 36.824 37.882 36.824C37.8239 36.8767 37.7876 36.949 37.78 37.027C37.996 37.154 38.242 37.224 38.493 37.23C38.493 37.332 38.493 37.332 38.595 37.433C38.697 37.535 38.798 37.433 38.9 37.332C39.1822 38.1164 39.3539 38.9363 39.41 39.768C40.4172 44.4827 41.0637 49.2672 41.344 54.08C41.65 56.008 41.65 58.241 41.854 60.474C42.057 62.707 42.261 65.244 42.566 67.681C42.566 68.188 42.362 68.493 42.362 69.001L42.057 69.305C42.159 69.914 42.464 70.015 42.567 70.625C42.77 70.625 42.872 70.828 42.974 71.03H43.686C44.501 70.421 45.926 70.32 46.538 69.71C46.583 68.96 46.685 68.213 46.843 67.478C46.639 67.275 46.843 66.768 46.945 66.564C46.9284 66.1554 46.9626 65.7462 47.047 65.346C47.0362 65.269 47.0003 65.1977 46.945 65.143C47.455 64.534 47.352 63.723 47.658 63.012C47.658 62.504 47.963 62.2 48.065 61.692C48.371 61.591 48.269 61.083 48.575 60.982C48.676 60.474 48.982 60.17 48.982 59.662C49.185 59.561 49.185 59.358 49.287 59.256C49.287 58.546 49.898 58.14 49.898 57.328C50 57.226 50.102 57.328 50.102 57.226V56.516H50.306V56.313C50.509 56.211 50.509 56.008 50.611 55.805C50.509 55.399 51.018 54.993 50.917 54.689C51.12 54.689 51.018 54.486 51.018 54.283H51.222C51.222 53.877 51.732 53.673 51.528 53.268C52.138 52.658 52.24 51.745 52.648 51.035C52.546 51.035 52.546 50.832 52.648 50.832C52.953 50.933 52.851 50.425 53.157 50.222C53.055 50.121 53.055 49.918 52.953 49.817C53.259 49.309 53.768 49.004 53.564 48.396C53.7615 48.3474 53.9338 48.2267 54.0468 48.0576C54.1599 47.8884 54.2056 47.6831 54.175 47.482C54.357 47.4026 54.5026 47.2577 54.583 47.076C54.481 46.568 54.786 46.366 54.684 45.858C54.961 45.44 55.2 44.998 55.397 44.538C55.499 44.437 55.601 44.538 55.703 44.335C55.804 44.132 55.601 44.335 55.601 44.234C55.8353 43.772 56.1079 43.3305 56.416 42.914C56.4124 42.7952 56.4385 42.6774 56.4917 42.5711C56.5449 42.4648 56.6237 42.3734 56.721 42.305C56.619 42.305 56.619 42.305 56.619 42.204C56.903 41.978 57.086 41.65 57.129 41.29C57.6311 40.6753 58.0423 39.9917 58.35 39.26V38.956C58.452 38.854 58.554 38.651 58.452 38.55C58.758 38.448 58.656 38.144 58.962 38.144C58.962 37.738 59.369 37.738 59.267 37.23C59.4026 37.1718 59.5156 37.071 59.589 36.943C59.6625 36.8149 59.6923 36.6665 59.674 36.52C59.776 36.52 59.776 36.52 59.878 36.418C59.98 35.809 60.591 35.606 60.693 34.998H60.794C60.794 34.693 60.896 34.287 61.202 34.185C61.1 33.881 61.405 33.779 61.405 33.576C61.711 33.475 61.609 33.069 62.016 33.069C61.914 32.866 62.118 32.764 62.016 32.561C62.118 32.561 62.22 32.46 62.322 32.46C62.3473 32.3074 62.4181 32.1659 62.525 32.054C62.4981 32.0538 62.4724 32.0429 62.4535 32.0238C62.4346 32.0047 62.424 31.9789 62.424 31.952C63.034 31.648 63.238 31.039 63.544 30.532C63.5441 30.5453 63.5469 30.5584 63.5521 30.5706C63.5573 30.5828 63.5648 30.5939 63.5743 30.6032C63.5838 30.6124 63.595 30.6198 63.6073 30.6247C63.6196 30.6297 63.6327 30.6322 63.646 30.632C63.816 30.282 64.06 29.971 64.359 29.719C64.46 29.516 64.868 29.11 64.868 28.907C65.071 28.907 65.275 28.704 65.173 28.501V28.4H65.377C65.275 28.095 65.58 28.095 65.479 27.993C65.58 27.993 65.682 27.892 65.784 27.892C65.9611 27.2645 66.3144 26.7009 66.802 26.268C66.904 26.268 67.006 26.471 67.006 26.268C66.904 26.268 67.006 26.065 66.904 26.065C67.312 25.761 67.21 25.05 67.719 24.948C67.719 24.847 67.617 24.847 67.719 24.745C67.7189 24.7585 67.7214 24.7718 67.7265 24.7842C67.7316 24.7967 67.7391 24.808 67.7486 24.8175C67.7581 24.827 67.7694 24.8345 67.7818 24.8395C67.7942 24.8446 67.8076 24.8472 67.821 24.847C67.719 24.542 68.024 24.542 67.923 24.237C68.024 24.137 68.024 24.339 68.126 24.339C68.239 24.038 68.456 23.786 68.737 23.629C68.839 23.019 69.654 22.817 69.552 22.208C69.857 22.208 69.756 21.802 70.062 21.802V21.6C70.9742 20.5334 71.824 19.4148 72.607 18.25C73.023 17.915 73.369 17.501 73.625 17.032C73.523 16.931 73.523 16.931 73.727 16.829C73.727 16.829 73.625 16.931 73.727 16.931C74.542 15.916 75.153 15.104 75.866 14.291ZM68.636 23.527C68.737 23.73 68.636 23.426 68.636 23.527ZM67.617 25.151C67.719 25.253 67.719 24.948 67.617 25.151ZM52.138 45.86C52.342 45.961 51.935 45.961 52.138 45.86ZM52.648 51.341V51.239C52.749 51.138 52.851 51.442 52.648 51.341ZM52.444 52.356C52.444 52.153 52.444 52.052 52.648 52.052C52.546 52.153 52.546 52.356 52.444 52.356ZM50.814 55.807C50.713 55.807 50.916 55.604 50.916 55.706C50.9159 55.7193 50.9133 55.7323 50.9081 55.7445C50.903 55.7567 50.8955 55.7678 50.886 55.777C50.8672 55.7959 50.8407 55.8067 50.814 55.807ZM61.1 35.607C61.202 35.709 61.1 35.404 61.1 35.607ZM66.599 37.637C66.599 37.739 66.599 37.84 66.497 37.84C64.969 37.536 63.646 38.754 62.729 39.769C62.729 40.073 62.526 40.175 62.526 40.378C62.526 41.088 62.933 41.393 63.035 42.103C63.137 42.205 63.137 42.306 63.34 42.408L63.747 42.306C63.7485 42.3846 63.7676 42.4619 63.8029 42.5322C63.8382 42.6025 63.8888 42.6639 63.951 42.712C63.951 42.509 63.951 42.509 64.053 42.408C64.6237 41.4496 65.3076 40.5632 66.09 39.768C66.191 39.87 66.395 39.668 66.497 39.668C67.413 39.668 67.821 40.784 69.145 40.479C69.755 39.566 70.672 39.059 71.181 38.043C71.385 37.84 71.385 37.536 71.792 37.231C71.894 36.825 72.2 36.521 72.2 36.115C71.545 36.8882 70.7039 37.4819 69.756 37.84C69.45 37.739 69.348 37.942 68.839 38.043C68.0679 38.1667 67.2777 38.0234 66.599 37.637ZM65.58 62.1C65.682 61.897 65.682 61.694 65.784 61.491C66.09 61.187 65.988 60.781 66.294 60.476C66.191 59.969 66.701 59.461 66.802 58.954V58.751C66.802 58.548 67.006 58.446 67.108 58.141C67.249 57.611 67.454 57.101 67.718 56.619C67.821 56.518 67.821 56.416 67.923 56.416C68.0644 55.8534 68.269 55.3086 68.533 54.792C68.533 57.228 68.33 60.07 69.653 62.303C69.756 62.405 69.552 62.405 69.653 62.506C69.774 62.694 69.953 62.836 70.163 62.912C70.163 63.014 70.061 63.014 70.061 63.115C70.3453 63.2976 70.6684 63.4111 71.0044 63.4464C71.3404 63.4816 71.68 63.4377 71.996 63.318C72.46 63.091 72.936 62.888 73.422 62.709C74.745 61.289 75.255 59.359 76.172 57.634C76.272 56.924 76.782 56.416 76.884 55.706C77.291 55.198 77.189 54.488 77.597 53.879C77.597 53.169 78.106 52.762 78.106 52.051C78.31 51.747 78.31 51.341 78.616 51.138C78.819 50.021 79.43 49.006 79.532 48.093C79.633 48.093 79.633 47.991 79.532 47.89C79.633 47.89 79.633 47.89 79.633 47.788C79.735 47.179 80.143 46.672 79.939 45.961C79.124 47.89 78.208 49.819 77.291 51.747C76.3494 54.7368 75.1923 57.6545 73.829 60.477C73.4412 61.0405 72.915 61.4947 72.301 61.796C72.1577 61.7808 72.0136 61.8166 71.894 61.897C71.384 61.39 71.792 60.375 71.487 59.664H71.69C71.589 59.36 71.69 59.157 71.589 58.954C71.6394 58.8789 71.6663 58.7905 71.6663 58.7C71.6663 58.6096 71.6394 58.5212 71.589 58.446C71.6912 58.185 71.6912 57.8951 71.589 57.634C71.6905 57.3382 71.6905 57.0169 71.589 56.721C71.749 56.227 71.851 55.716 71.894 55.198C71.9005 55.143 71.8948 55.0871 71.8771 55.0346C71.8595 54.982 71.8304 54.934 71.792 54.894C71.8424 54.8189 71.8693 54.7305 71.8693 54.64C71.8693 54.5496 71.8424 54.4612 71.792 54.386C71.996 54.183 71.894 53.98 71.894 53.676C71.996 53.574 71.996 53.473 72.098 53.371C72.098 53.067 71.996 52.965 72.2 52.864C72.098 51.747 72.709 51.036 72.505 49.92C72.721 49.48 72.792 48.982 72.709 48.499C72.709 48.398 72.912 48.296 73.014 48.194C72.912 47.788 73.218 47.585 73.116 47.179C73.523 46.57 73.422 45.759 73.727 45.251C73.3597 44.9363 73.1086 44.5074 73.014 44.033C73.014 44.033 72.912 44.134 72.912 44.033V43.83C72.607 43.525 72.2 43.424 71.996 42.815C71.486 42.713 71.283 42.205 70.672 42.409C70.5654 42.5117 70.4898 42.6423 70.4538 42.7858C70.4177 42.9294 70.4226 43.0802 70.468 43.221C70.367 43.322 70.367 43.525 70.265 43.627C70.163 45.047 69.552 46.266 69.45 47.788C69.246 47.788 69.45 47.89 69.246 47.991C69.348 47.89 69.348 48.093 69.348 48.194C69.246 48.601 69.246 49.007 68.941 49.21C68.958 49.3844 68.9294 49.5603 68.8581 49.7203C68.7867 49.8803 68.6751 50.0191 68.534 50.123C67.515 53.067 66.701 56.213 65.071 58.751C65.173 58.852 64.969 58.954 64.969 59.055C64.9167 59.0597 64.8678 59.0826 64.8307 59.1197C64.7936 59.1568 64.7707 59.2058 64.766 59.258L64.868 59.36C64.4432 60.2401 63.8559 61.032 63.137 61.694C63.0644 61.2861 63.0992 60.8664 63.238 60.476C63.136 59.969 63.34 59.461 63.238 58.751C63.39 57.048 63.628 55.354 63.951 53.676C63.9662 53.5329 63.9301 53.389 63.849 53.27C63.8761 53.27 63.902 53.2593 63.9211 53.2402C63.9403 53.221 63.951 53.1951 63.951 53.168C63.951 52.051 64.461 50.935 64.461 50.021C64.715 49.743 64.86 49.383 64.868 49.006C65.107 48.68 65.248 48.293 65.275 47.89C65.463 47.77 65.606 47.591 65.682 47.382C65.5908 47.0275 65.454 46.6864 65.275 46.367C63.849 46.266 62.525 45.961 61.303 45.961C61.1255 46.2453 60.9885 46.5529 60.896 46.875C60.896 46.976 60.998 47.078 60.998 47.179C60.8383 47.7426 60.7361 48.3209 60.693 48.905C60.591 49.412 60.387 50.123 60.285 50.732V51.24C60.183 52.052 60.183 52.965 60.082 53.879C60.064 54.559 59.996 55.238 59.878 55.909C59.898 56.553 59.863 57.199 59.776 57.837C59.725 58.717 59.725 59.597 59.776 60.477L59.674 60.577C59.674 60.882 60.081 61.288 59.776 61.491C59.96 62.157 60.096 62.836 60.183 63.521C60.4199 63.8492 60.7224 64.1245 61.0713 64.3295C61.4203 64.5346 61.808 64.6648 62.21 64.712C62.6119 64.7596 63.0192 64.7234 63.4064 64.6059C63.7937 64.4883 64.1524 64.2919 64.46 64.029C64.796 63.682 65.102 63.309 65.377 62.912C65.377 62.709 65.173 62.811 65.275 62.608C65.3683 62.5604 65.4463 62.4875 65.5002 62.3977C65.5541 62.3079 65.5818 62.2048 65.58 62.1Z" fill="black"/>
</g>
</g>
<defs>
<clipPath id="clip0_2481_102">
<rect width="80" height="75" fill="white"/>
</clipPath>
</defs>
</svg>
